<svg xmlns="http://www.w3.org/2000/svg" viewBox="0 0 32 32">
  <defs>
    <mask id="h">
      <rect width="32" height="32" fill="white"/>
      <circle cx="16" cy="16" r="3.5" fill="black"/>
    </mask>
  </defs>
  <g fill="#B05220" mask="url(#h)">
    <circle cx="16" cy="16" r="10"/>
    <rect x="13.5" y="2" width="5" height="8" rx="0.5"/>
    <rect x="13.5" y="2" width="5" height="8" rx="0.5" transform="rotate(45 16 16)"/>
    <rect x="13.5" y="2" width="5" height="8" rx="0.5" transform="rotate(90 16 16)"/>
    <rect x="13.5" y="2" width="5" height="8" rx="0.5" transform="rotate(135 16 16)"/>
    <rect x="13.5" y="2" width="5" height="8" rx="0.5" transform="rotate(180 16 16)"/>
    <rect x="13.5" y="2" width="5" height="8" rx="0.5" transform="rotate(225 16 16)"/>
    <rect x="13.5" y="2" width="5" height="8" rx="0.5" transform="rotate(270 16 16)"/>
    <rect x="13.5" y="2" width="5" height="8" rx="0.5" transform="rotate(315 16 16)"/>
  </g>
</svg>
